<svg width="144" height="40" viewBox="0 0 144 40" fill="none" xmlns="http://www.w3.org/2000/svg">
<path d="M70.005 18.5486C70.0049 18.2125 70.1358 17.8898 70.3697 17.6494C70.6037 17.409 70.922 17.2701 71.2568 17.2623H78.39C83.4469 17.2623 86.7751 19.9645 86.7751 24.3918V24.4516C86.7751 29.2977 82.7415 31.8105 77.9727 31.8105H72.5384V38.611C72.5539 38.7874 72.5328 38.9651 72.4762 39.1329C72.4196 39.3006 72.3289 39.4547 72.2097 39.5854C72.0906 39.716 71.9457 39.8204 71.7842 39.8918C71.6227 39.9631 71.4481 40 71.2717 40C71.0952 40 70.9207 39.9631 70.7592 39.8918C70.5977 39.8204 70.4527 39.716 70.3336 39.5854C70.2145 39.4547 70.1237 39.3006 70.0671 39.1329C70.0106 38.9651 69.9894 38.7874 70.005 38.611V18.5486ZM78.0721 29.5171C81.7778 29.5171 84.2119 27.5228 84.2119 24.5314V24.4716C84.2119 21.2608 81.8175 19.5956 78.2509 19.5956H72.588V29.4772L78.0721 29.5171Z" fill="#283645"/>
<path d="M91.5935 18.389C91.5779 18.2126 91.5991 18.0349 91.6556 17.8671C91.7122 17.6994 91.803 17.5452 91.9221 17.4146C92.0412 17.2839 92.1862 17.1796 92.3477 17.1082C92.5092 17.0369 92.6837 17 92.8602 17C93.0366 17 93.2112 17.0369 93.3727 17.1082C93.5342 17.1796 93.6791 17.2839 93.7982 17.4146C93.9174 17.5452 94.0081 17.6994 94.0647 17.8671C94.1213 18.0349 94.1425 18.2126 94.1269 18.389V38.611C94.1425 38.7874 94.1213 38.9651 94.0647 39.1329C94.0081 39.3006 93.9174 39.4548 93.7982 39.5854C93.6791 39.7161 93.5342 39.8204 93.3727 39.8918C93.2112 39.9631 93.0366 40 92.8602 40C92.6837 40 92.5092 39.9631 92.3477 39.8918C92.1862 39.8204 92.0412 39.7161 91.9221 39.5854C91.803 39.4548 91.7122 39.3006 91.6556 39.1329C91.5991 38.9651 91.5779 38.7874 91.5935 38.611V18.389Z" fill="#283645"/>
<path d="M100.674 18.419C100.682 18.0891 100.816 17.775 101.05 17.5426C101.283 17.3102 101.597 17.1776 101.926 17.1725H102.273C102.532 17.1778 102.784 17.2482 103.008 17.3771C103.232 17.5061 103.42 17.6894 103.555 17.9104L117.156 35.3104V18.3591C117.156 18.0312 117.286 17.7167 117.517 17.4848C117.748 17.2529 118.061 17.1227 118.388 17.1227C118.715 17.1227 119.028 17.2529 119.259 17.4848C119.49 17.7167 119.62 18.0312 119.62 18.3591V38.6508C119.625 38.8051 119.599 38.9589 119.544 39.1028C119.488 39.2467 119.403 39.3777 119.296 39.4878C119.188 39.5979 119.059 39.6848 118.916 39.7432C118.774 39.8016 118.621 39.8303 118.467 39.8275H118.338C118.074 39.8092 117.818 39.7294 117.591 39.5944C117.363 39.4593 117.17 39.2728 117.027 39.0497L103.118 21.2408V38.6508C103.116 38.9722 102.991 39.2805 102.769 39.5124C102.547 39.7442 102.246 39.882 101.926 39.8973C101.601 39.892 101.291 39.7581 101.064 39.5246C100.837 39.2911 100.711 38.9771 100.714 38.6508V18.419H100.674Z" fill="#283645"/>
<path d="M125.938 18.389C125.923 18.2126 125.944 18.0349 126.001 17.8671C126.057 17.6994 126.148 17.5452 126.267 17.4146C126.386 17.2839 126.531 17.1796 126.693 17.1082C126.854 17.0369 127.029 17 127.205 17C127.382 17 127.556 17.0369 127.718 17.1082C127.879 17.1796 128.024 17.2839 128.143 17.4146C128.262 17.5452 128.353 17.6994 128.41 17.8671C128.466 18.0349 128.487 18.2126 128.472 18.389V30.6837L141.228 17.5514C141.49 17.2797 141.845 17.1191 142.222 17.1027C142.547 17.1155 142.855 17.2528 143.082 17.4865C143.309 17.7202 143.439 18.0325 143.444 18.3591C143.437 18.529 143.396 18.6957 143.325 18.8498C143.253 19.0038 143.152 19.1421 143.026 19.2565L135.078 27.1539L143.652 37.6836C143.876 37.9441 144 38.2768 144 38.6209C143.996 38.7933 143.958 38.9633 143.889 39.121C143.819 39.2786 143.719 39.4209 143.594 39.5395C143.47 39.6582 143.323 39.7509 143.162 39.8123C143.002 39.8737 142.831 39.9026 142.659 39.8973C142.459 39.8891 142.264 39.8322 142.091 39.7314C141.918 39.6306 141.772 39.4891 141.665 39.3189L133.3 28.859L128.472 33.7051V38.591C128.472 38.7573 128.439 38.922 128.376 39.0756C128.312 39.2293 128.219 39.3689 128.102 39.4865C127.985 39.6041 127.846 39.6973 127.693 39.761C127.54 39.8246 127.376 39.8574 127.21 39.8574C127.044 39.8574 126.88 39.8246 126.727 39.761C126.574 39.6973 126.435 39.6041 126.318 39.4865C126.201 39.3689 126.108 39.2293 126.044 39.0756C125.981 38.922 125.948 38.7573 125.948 38.591V18.389H125.938Z" fill="#283645"/>
<path fill-rule="evenodd" clip-rule="evenodd" d="M53.8917 6.58616L58.9302 27.7312C59.0013 27.9491 59.0184 28.1815 58.98 28.4078C58.9417 28.6341 58.849 28.8472 58.7102 29.0284C58.5715 29.2096 58.3909 29.3532 58.1845 29.4465C57.978 29.5398 57.7522 29.58 57.5268 29.5635H53.5201C52.8298 35.3747 47.9494 39.8784 42.0315 39.8784C36.1136 39.8784 31.2332 35.3747 30.543 29.5635H28.5778C27.8869 35.442 22.9527 40 16.9685 40C10.9742 40 6.0335 35.4266 5.35571 29.5337H1.45014C1.22961 29.5445 1.00974 29.5014 0.808914 29.4082C0.608085 29.315 0.432119 29.1743 0.295711 28.9979C0.159304 28.8214 0.0664152 28.6144 0.0248022 28.3941C-0.0168108 28.1737 -0.00593994 27.9464 0.0565069 27.7312L5.10477 6.58616C5.45562 4.25872 7.63865 0 13.4861 0C13.8738 0 14.2456 0.156518 14.5197 0.435122C14.7939 0.713727 14.9479 1.0916 14.9479 1.4856C14.9479 1.87961 14.7939 2.25748 14.5197 2.53608C14.2456 2.81468 13.8738 2.9712 13.4861 2.9712C8.7789 2.9712 8.04797 6.6654 7.9895 7.07146L3.3408 26.6022H5.37467C6.12089 20.7847 11.0272 16.2918 16.9685 16.2918C22.9066 16.2918 27.8107 20.7798 28.5611 26.5926L30.5587 26.6017C31.3043 20.8518 36.1567 16.4134 42.0315 16.4134C47.9178 16.4134 52.7776 20.8691 53.5086 26.6353V26.5824H55.6459L51.007 7.07146C50.9387 6.6654 50.237 2.9712 45.5104 2.9712C45.1227 2.9712 44.7509 2.81468 44.4767 2.53608C44.2026 2.25748 44.0485 1.87961 44.0485 1.4856C44.0485 1.0916 44.2026 0.713727 44.4767 0.435122C44.7509 0.156518 45.1227 0 45.5104 0C51.3578 0 53.5408 4.25872 53.8917 6.58616ZM25.6722 29.5635C25.7448 29.1018 25.7825 28.6283 25.7825 28.1459C25.7825 27.6164 25.7371 27.0977 25.65 26.5935C24.9252 22.3982 21.3141 19.2097 16.9685 19.2097C12.6203 19.2097 9.00753 22.402 8.28571 26.601C8.19945 27.1028 8.15447 27.619 8.15447 28.1459C8.15447 28.6205 8.19096 29.0864 8.26125 29.541C8.92191 33.8136 12.5687 37.0821 16.9685 37.0821C21.3605 37.0821 25.0023 33.8251 25.6722 29.5635ZM50.6138 29.5635C50.6874 29.102 50.7256 28.6285 50.7256 28.1459C50.7256 23.2777 46.8331 19.3313 42.0315 19.3313C37.2299 19.3313 33.3374 23.2777 33.3374 28.1459C33.3374 28.6285 33.3756 29.102 33.4492 29.5635C34.118 33.7577 37.7058 36.9605 42.0315 36.9605C46.3572 36.9605 49.945 33.7577 50.6138 29.5635Z" fill="#D22856"/>
</svg>
